  
<svg role="img" aria-labelledby="not-playing-title" width="32" height="32" viewBox="0 0 32 32" fill="none" xmlns="http://www.w3.org/2000/svg">
    <title id="not-playing-title">Nada tocando</title>
    <path d="M20.708 19.0348H19.624C19.3267 19.0348 19.0547 19.2028 18.9227 19.4681L17.9214 21.4708C17.7774 21.7601 17.364 21.7601 17.22 21.4708L14.7707 16.5708C14.628 16.2868 14.2254 16.2801 14.0747 16.5601L12.96 18.6228C12.8227 18.8761 12.5574 19.0348 12.2694 19.0348H11.292" stroke="var(--clr-default)" stroke-width="2" stroke-linecap="round" stroke-linejoin="round"/>
    <path d="M6.55868 16H5.33468C3.62535 16 2.35735 17.5867 2.73335 19.2534L3.63602 23.2534C3.91068 24.4694 4.99068 25.3334 6.23735 25.3334H7.83202C8.26002 25.3334 8.57602 24.9374 8.48268 24.52L6.76002 16.892C5.42268 10.968 9.92668 5.33337 16 5.33337V5.33337V5.33337C22.0733 5.33337 26.5773 10.968 25.24 16.892L23.5187 24.52C23.424 24.9374 23.7413 25.3334 24.168 25.3334H25.7627C27.0093 25.3334 28.0893 24.4694 28.364 23.2534L29.2667 19.2534C29.6427 17.5867 28.3747 16 26.6653 16H25.4413" stroke="currentColor" stroke-width="2" stroke-linecap="round" stroke-linejoin="round"/>
</svg>