  
<svg role="img" width="32" height="32" viewBox="0 0 32 32" fill="none" xmlns="http://www.w3.org/2000/svg">
    <path d="M20.7081 19.0348H19.6241C19.3268 19.0348 19.0548 19.2028 18.9228 19.4681L17.9214 21.4708C17.7774 21.7601 17.3641 21.7601 17.2201 21.4708L14.7708 16.5708C14.6281 16.2868 14.2254 16.2801 14.0748 16.5601L12.9601 18.6228C12.8228 18.8761 12.5574 19.0348 12.2694 19.0348H11.2921" stroke="var(--clr-default)" stroke-width="2" stroke-linecap="round" stroke-linejoin="round"/>
    <path d="M6.55874 16H5.33474C3.62541 16 2.35741 17.5867 2.73341 19.2534L3.63608 23.2534C3.91074 24.4694 4.99074 25.3334 6.23741 25.3334H7.83208C8.26008 25.3334 8.57608 24.9374 8.48274 24.52L6.76008 16.892C5.42274 10.968 9.92674 5.33337 16.0001 5.33337V5.33337V5.33337C22.0734 5.33337 26.5774 10.968 25.2401 16.892L23.5187 24.52C23.4241 24.9374 23.7414 25.3334 24.1681 25.3334H25.7627C27.0094 25.3334 28.0894 24.4694 28.3641 23.2534L29.2667 19.2534C29.6427 17.5867 28.3747 16 26.6654 16H25.4414" stroke="currentColor" stroke-width="2" stroke-linecap="round" stroke-linejoin="round"/>
</svg>