
<svg role="img" aria-labelledby="logo-title" width="161" height="40" viewBox="0 0 161 40" fill="none" xmlns="http://www.w3.org/2000/svg">
<title id="logo-title">Podcastr</title>
<path d="M58 28.76V11.96H65.0379C66.024 11.96 66.9067 12.2 67.6861 12.68C68.4813 13.144 69.1096 13.784 69.5708 14.6C70.048 15.4 70.2865 16.304 70.2865 17.312C70.2865 18.352 70.048 19.288 69.5708 20.12C69.1096 20.936 68.4813 21.592 67.6861 22.088C66.9067 22.568 66.024 22.808 65.0379 22.808H61.4355V28.76H58ZM61.4116 19.664H64.6801C65.2685 19.664 65.7616 19.448 66.1592 19.016C66.5727 18.568 66.7795 18.016 66.7795 17.36C66.7795 16.704 66.5727 16.168 66.1592 15.752C65.7616 15.32 65.2685 15.104 64.6801 15.104H61.4116V19.664Z" fill="var(--clr-text-heading)"/>
<path d="M78.6277 29C77.3394 29 76.1942 28.72 75.1922 28.16C74.1902 27.584 73.4029 26.8 72.8303 25.808C72.2577 24.816 71.9715 23.68 71.9715 22.4C71.9715 21.136 72.2577 20.008 72.8303 19.016C73.4029 18.024 74.1902 17.248 75.1922 16.688C76.1942 16.112 77.3394 15.824 78.6277 15.824C79.8841 15.824 81.0134 16.112 82.0154 16.688C83.0174 17.248 83.8047 18.024 84.3773 19.016C84.9499 20.008 85.2361 21.136 85.2361 22.4C85.2361 23.68 84.9499 24.816 84.3773 25.808C83.8047 26.8 83.0174 27.584 82.0154 28.16C81.0134 28.72 79.8841 29 78.6277 29ZM78.6277 26.144C79.2639 26.144 79.8364 25.984 80.3454 25.664C80.8543 25.328 81.244 24.88 81.5144 24.32C81.8007 23.76 81.9438 23.12 81.9438 22.4C81.9438 21.68 81.8007 21.04 81.5144 20.48C81.244 19.92 80.8543 19.48 80.3454 19.16C79.8364 18.84 79.2639 18.68 78.6277 18.68C77.9756 18.68 77.395 18.84 76.8861 19.16C76.3771 19.48 75.9795 19.92 75.6932 20.48C75.4069 21.04 75.2638 21.68 75.2638 22.4C75.2638 23.12 75.4069 23.76 75.6932 24.32C75.9795 24.88 76.3771 25.328 76.8861 25.664C77.395 25.984 77.9756 26.144 78.6277 26.144Z" fill="var(--clr-text-heading)"/>
<path d="M92.7961 29C91.6828 29 90.6887 28.72 89.814 28.16C88.9392 27.584 88.2473 26.8 87.7384 25.808C87.2453 24.816 86.9988 23.688 86.9988 22.424C86.9988 21.144 87.2453 20.008 87.7384 19.016C88.2473 18.024 88.9392 17.248 89.814 16.688C90.6887 16.112 91.6828 15.824 92.7961 15.824C93.5596 15.824 94.2832 15.976 94.9671 16.28C95.667 16.584 96.2316 16.976 96.661 17.456V11H99.9295V28.76H96.828L96.7803 27.248C96.3668 27.744 95.8022 28.16 95.0864 28.496C94.3707 28.832 93.6073 29 92.7961 29ZM93.5118 26.264C94.482 26.264 95.2693 25.912 95.8737 25.208C96.4781 24.488 96.7803 23.56 96.7803 22.424C96.7803 21.272 96.4781 20.344 95.8737 19.64C95.2693 18.92 94.482 18.56 93.5118 18.56C92.5416 18.56 91.7544 18.92 91.15 19.64C90.5456 20.344 90.2434 21.272 90.2434 22.424C90.2434 23.56 90.5456 24.488 91.15 25.208C91.7544 25.912 92.5416 26.264 93.5118 26.264Z" fill="var(--clr-text-heading)"/>
<path d="M108.697 29C107.504 29 106.43 28.712 105.476 28.136C104.538 27.56 103.79 26.776 103.233 25.784C102.693 24.792 102.422 23.664 102.422 22.4C102.422 21.152 102.693 20.032 103.233 19.04C103.79 18.048 104.538 17.264 105.476 16.688C106.43 16.112 107.504 15.824 108.697 15.824C109.826 15.824 110.852 16.032 111.774 16.448C112.713 16.864 113.444 17.448 113.969 18.2L112.18 20.36C111.846 19.896 111.385 19.504 110.796 19.184C110.208 18.848 109.611 18.68 109.007 18.68C108.339 18.68 107.742 18.848 107.218 19.184C106.709 19.504 106.303 19.944 106.001 20.504C105.715 21.064 105.571 21.696 105.571 22.4C105.571 23.104 105.722 23.736 106.025 24.296C106.327 24.856 106.74 25.304 107.265 25.64C107.79 25.96 108.379 26.12 109.031 26.12C109.651 26.12 110.224 25.984 110.748 25.712C111.273 25.424 111.75 25.024 112.18 24.512L113.969 26.672C113.428 27.376 112.681 27.944 111.727 28.376C110.772 28.792 109.762 29 108.697 29Z" fill="var(--clr-text-heading)"/>
<path d="M120.888 29C119.838 29 118.892 28.712 118.049 28.136C117.206 27.56 116.53 26.776 116.021 25.784C115.528 24.792 115.282 23.664 115.282 22.4C115.282 21.104 115.528 19.968 116.021 18.992C116.53 18 117.214 17.224 118.073 16.664C118.948 16.104 119.934 15.824 121.031 15.824C121.922 15.824 122.701 16.008 123.369 16.376C124.037 16.728 124.57 17.192 124.968 17.768V16.088H128.212V28.76H124.944V27.056C124.499 27.616 123.918 28.08 123.202 28.448C122.503 28.816 121.731 29 120.888 29ZM121.771 26.144C122.741 26.144 123.528 25.8 124.133 25.112C124.737 24.424 125.039 23.52 125.039 22.4C125.039 21.28 124.737 20.376 124.133 19.688C123.528 19 122.741 18.656 121.771 18.656C120.817 18.656 120.037 19 119.433 19.688C118.844 20.376 118.55 21.28 118.55 22.4C118.55 23.52 118.844 24.424 119.433 25.112C120.037 25.8 120.817 26.144 121.771 26.144Z" fill="var(--clr-text-heading)"/>
<path d="M135.857 29C134.696 29 133.662 28.808 132.756 28.424C131.849 28.04 131.117 27.496 130.561 26.792L132.613 25.04C133.09 25.568 133.63 25.952 134.235 26.192C134.839 26.416 135.452 26.528 136.072 26.528C136.565 26.528 136.963 26.416 137.265 26.192C137.567 25.968 137.718 25.656 137.718 25.256C137.718 24.904 137.575 24.624 137.289 24.416C137.002 24.224 136.318 23.984 135.237 23.696C133.63 23.28 132.493 22.712 131.825 21.992C131.237 21.352 130.943 20.56 130.943 19.616C130.943 18.864 131.165 18.208 131.611 17.648C132.056 17.072 132.644 16.624 133.376 16.304C134.108 15.984 134.903 15.824 135.762 15.824C136.748 15.824 137.678 16 138.553 16.352C139.428 16.704 140.159 17.184 140.748 17.792L138.982 19.736C138.537 19.32 138.02 18.976 137.432 18.704C136.859 18.416 136.326 18.272 135.833 18.272C134.688 18.272 134.116 18.672 134.116 19.472C134.131 19.856 134.306 20.16 134.64 20.384C134.959 20.608 135.682 20.872 136.811 21.176C138.322 21.576 139.388 22.104 140.008 22.76C140.549 23.32 140.819 24.064 140.819 24.992C140.819 25.76 140.597 26.448 140.151 27.056C139.722 27.664 139.134 28.144 138.386 28.496C137.639 28.832 136.796 29 135.857 29Z" fill="var(--clr-text-heading)"/>
<path d="M144.524 28.76V19.04H142.138V16.088H144.524V12.848H147.769V16.088H150.417V19.04H147.769V28.76H144.524Z" fill="var(--clr-text-heading)"/>
<path d="M152.602 28.76V16.088H155.751L155.799 18.176C156.213 17.488 156.753 16.928 157.421 16.496C158.105 16.048 158.821 15.824 159.569 15.824C159.855 15.824 160.117 15.848 160.356 15.896C160.61 15.928 160.825 15.976 161 16.04L160.117 19.64C159.942 19.544 159.72 19.464 159.449 19.4C159.179 19.336 158.909 19.304 158.638 19.304C157.859 19.304 157.199 19.576 156.658 20.12C156.133 20.648 155.871 21.32 155.871 22.136V28.76H152.602Z" fill="var(--clr-text-heading)"/>
<path d="M38.125 19.8875C38.1494 23.0541 37.3397 26.1714 35.7773 28.9258C35.575 29.2836 35.3606 29.6336 35.1343 29.9758C35.0225 30.1497 34.8772 30.2997 34.7069 30.4171C34.5366 30.5344 34.3447 30.6168 34.1423 30.6594C33.94 30.702 33.7312 30.7041 33.528 30.6654C33.3249 30.6267 33.1314 30.5481 32.9589 30.4341C32.7863 30.3201 32.6381 30.173 32.5229 30.0012C32.4076 29.8295 32.3276 29.6366 32.2875 29.4338C32.2473 29.2309 32.2479 29.0221 32.289 28.8194C32.3302 28.6168 32.4112 28.4243 32.5273 28.2532C34.0185 25.9896 34.8685 23.3643 34.9869 20.6563C35.1054 17.9483 34.4879 15.2588 33.2 12.8737C31.9122 10.4886 30.0022 8.49702 27.673 7.11063C25.3438 5.72424 22.6824 4.99487 19.9718 5.00004C14.7617 5.01019 10.1422 7.74535 7.457 11.8321C5.85183 14.2702 4.99766 17.1259 5.00044 20.045C5.00321 22.964 5.86281 25.8181 7.47263 28.2532C7.70086 28.5991 7.78233 29.0215 7.69911 29.4275C7.61589 29.8335 7.3748 30.1898 7.02888 30.418C6.68296 30.6462 6.26054 30.7277 5.85455 30.6445C5.44857 30.5613 5.09227 30.3202 4.86404 29.9743C3.07904 27.2654 2.05375 24.1272 1.89515 20.887C1.73655 17.6468 2.45046 14.4234 3.96239 11.5532C5.47431 8.68299 7.72883 6.27115 10.4907 4.56935C13.2525 2.86755 16.4205 1.93816 19.664 1.87816C19.7781 1.87582 19.8914 1.87504 20.0047 1.87504C24.7948 1.86517 29.3932 3.75631 32.7905 7.13335C36.1877 10.5104 38.1063 15.0974 38.125 19.8875Z" fill="var(--clr-text-heading)"/>
<path d="M9.06588 22.7943L11.8978 36.8818C12.0678 37.7275 12.8911 38.2753 13.7368 38.1053C14.5825 37.9353 15.1303 37.1119 14.9603 36.2662L12.1284 22.1787C11.9584 21.333 11.135 20.7853 10.2893 20.9553C9.44363 21.1253 8.89588 21.9487 9.06588 22.7943Z" fill="var(--clr-secondary)"/>
<path d="M11.8437 36.5642L11.1258 36.7087C10.0589 36.9235 8.95032 36.7226 8.02671 36.1471C7.1031 35.5716 6.43426 34.6649 6.157 33.6126C6.13591 33.5314 6.11638 33.4501 6.09997 33.3673L5.07106 28.2556C4.84809 27.146 5.07479 25.9932 5.70135 25.0507C6.3279 24.1081 7.30304 23.4529 8.41247 23.229L9.13044 23.0845L10.3898 29.3407L11.8437 36.5642Z" fill="var(--clr-text-heading)"/>
<path d="M11.8437 36.564L11.1257 36.7085C10.0589 36.9234 8.9503 36.7225 8.02669 36.1469C7.10308 35.5714 6.43425 34.6648 6.15698 33.6125C7.67436 32.2981 9.08939 30.87 10.3898 29.3406L11.8437 36.564Z" fill="var(--clr-text-heading)"/>
<path d="M36.1476 27.0876L35.7773 28.9259C35.575 29.2837 35.3606 29.6337 35.1343 29.9759C35.0224 30.1499 34.8771 30.2998 34.7069 30.4172C34.5366 30.5345 34.3447 30.6169 34.1423 30.6595C33.94 30.7022 33.7312 30.7042 33.528 30.6655C33.3249 30.6268 33.1314 30.5482 32.9589 30.4342C32.7863 30.3202 32.6381 30.1731 32.5229 30.0014C32.4076 29.8296 32.3276 29.6368 32.2875 29.4339C32.2473 29.231 32.2479 29.0222 32.289 28.8195C32.3302 28.6169 32.4112 28.4244 32.5273 28.2533C33.5864 26.6504 34.3258 24.8579 34.7046 22.9744C35.2927 23.467 35.7371 24.109 35.991 24.8328C36.2449 25.5567 36.299 26.3356 36.1476 27.0876Z" fill="var(--clr-text-heading)"/>
<path d="M34.2953 8.82973L32.0539 11.0711C30.6573 9.18253 28.836 7.64894 26.7371 6.59429C24.6383 5.53965 22.3208 4.99352 19.9719 5.00005C14.7617 5.0102 10.1422 7.74536 7.45703 11.8321L5.18359 9.55864C6.82274 7.2294 8.98843 5.31987 11.5046 3.98529C14.0207 2.65072 16.8163 1.92878 19.6641 1.87817C19.7781 1.87583 19.8914 1.87505 20.0047 1.87505C22.7591 1.86887 25.4786 2.49226 27.9553 3.69759C30.4321 4.90292 32.6006 6.65832 34.2953 8.82973Z" fill="var(--clr-primary)"/>
<path d="M27.8462 22.1635L25.0144 36.251C24.8444 37.0967 25.3921 37.92 26.2378 38.09C27.0835 38.26 27.9069 37.7123 28.0769 36.8666L30.9087 22.7791C31.0787 21.9334 30.531 21.11 29.6853 20.94C28.8396 20.77 28.0162 21.3178 27.8462 22.1635Z" fill="var(--clr-secondary)"/>
<path d="M34.9289 28.2556L33.9 33.3673C33.6766 34.4768 33.0216 35.4522 32.0791 36.0788C31.1366 36.7055 29.9838 36.932 28.8742 36.7087L28.1562 36.5642L28.9 32.8712L30.8695 23.0845L31.5875 23.229C32.6968 23.4532 33.672 24.1081 34.2992 25.0501C34.3856 25.18 34.4646 25.3145 34.5359 25.4532C34.9817 26.3155 35.1203 27.3039 34.9289 28.2556Z" fill="var(--clr-text-heading)"/>
<path d="M34.9289 28.2555L33.9 33.3672C33.6766 34.4767 33.0216 35.4521 32.0791 36.0787C31.1366 36.7054 29.9838 36.9319 28.8742 36.7086L28.1562 36.5641L28.9 32.8711C31.0403 30.6086 32.9299 28.1215 34.5359 25.4531C34.9817 26.3154 35.1203 27.3038 34.9289 28.2555Z" fill="var(--clr-text-heading)"/>
</svg>